<?xml version="1.0" encoding="UTF-8"?>
<svg id="Layer_1" data-name="Layer 1" xmlns="http://www.w3.org/2000/svg" viewBox="0 0 1307.76 1299.87">
  <defs>
    <style>
      .cls-1 {
        fill: #51294b;
      }

      .cls-2 {
        fill: #c1bcc4;
        opacity: .54;
        stroke: #d0e26f;
      }

      .cls-2, .cls-3 {
        stroke-miterlimit: 10;
      }

      .cls-3 {
        fill: #a25aa4;
        stroke: #000;
        stroke-width: 10px;
      }
    </style>
  </defs>
  <path d="M1202.29,116.45c-12.94-10.73-30.04-15.44-46.89-12.85L418.05,216.62c-28.29,4.34-49.13,28.01-49.13,55.82V856.38h-116.42c-128.39,0-232.84,92.95-232.84,207.2s104.45,207.2,232.84,207.2,232.84-92.95,232.84-207.2V546.76l620.92-95.18v310.6h-116.42c-128.39,0-232.84,92.95-232.84,207.2s104.45,207.2,232.84,207.2,232.84-92.95,232.84-207.2V159.42c0-16.53-7.46-32.23-20.4-42.96Z"/>
  <path class="cls-3" d="M1202.88,84.94c-12.56-10.73-29.16-15.44-45.52-12.85L441.56,185.1c-27.46,4.34-47.69,28.01-47.69,55.82V824.86h-113.02c-124.64,0-226.04,92.95-226.04,207.2s101.4,207.2,226.04,207.2,226.04-92.95,226.04-207.2V515.25l602.78-95.18v310.6h-113.02c-124.64,0-226.04,92.95-226.04,207.2s101.4,207.2,226.04,207.2,226.04-92.95,226.04-207.2V127.9c0-16.53-7.24-32.23-19.8-42.96Z"/>
  <g>
    <polygon class="cls-1" points="1124.8 686.85 1124.8 376.24 522.02 471.42 522.02 513.28 1112.33 420.07 1112.33 686.85 1124.8 686.85"/>
    <path class="cls-1" d="M409,781.03V205.53c-7.83,9.74-12.47,22.09-12.47,35.39V781.03h12.47Z"/>
    <path class="cls-1" d="M295.98,1195.44c-124.64,0-226.04-92.95-226.04-207.2,0-10.19,.82-20.21,2.38-30.01-9.58,22.95-14.85,47.84-14.85,73.84,0,114.25,101.4,207.2,226.04,207.2,113.52,0,207.75-77.11,223.66-177.19-32.52,77.9-114.92,133.36-211.19,133.36Z"/>
    <path class="cls-1" d="M1011.78,1101.26c-124.64,0-226.04-92.95-226.04-207.2,0-10.19,.82-20.21,2.38-30.01-9.58,22.95-14.85,47.84-14.85,73.84,0,114.25,101.4,207.2,226.04,207.2,113.52,0,207.75-77.11,223.66-177.19-32.52,77.9-114.92,133.36-211.19,133.36Z"/>
  </g>
  <path class="cls-2" d="M1183,96.96l-602.78,95.18v41.86l590.31-93.21c4.16-14.61,8.31-29.22,12.47-43.83Z"/>
  <circle class="cls-2" cx="177.79" cy="978.06" r="73.79"/>
  <circle class="cls-2" cx="881.61" cy="878.84" r="57.78"/>
</svg>