<?xml version="1.0" encoding="UTF-8"?>
<svg id="Layer_1" data-name="Layer 1" xmlns="http://www.w3.org/2000/svg" viewBox="0 0 1307.76 1299.87">
  <defs>
    <style>
      .cls-1 {
        fill: #59a6f9;
      }

      .cls-1, .cls-2, .cls-3, .cls-4 {
        stroke: #000;
        stroke-miterlimit: 10;
        stroke-width: 10px;
      }

      .cls-2 {
        fill: #cb404d;
      }

      .cls-5 {
        fill: #635ee9;
        opacity: .54;
      }

      .cls-3 {
        fill: #ffbc45;
      }

      .cls-4 {
        fill: #1fe563;
      }

      .cls-6 {
        fill: #c14579;
      }

      .cls-7 {
        fill: #727172;
      }

      .cls-8 {
        fill: #ff9477;
      }

      .cls-9 {
        fill: #857a87;
      }

      .cls-10 {
        fill: #489564;
      }

      .cls-11 {
        fill: #4b3a4c;
        opacity: .38;
      }
    </style>
  </defs>
  <g>
    <g>
      <circle class="cls-7" cx="668.93" cy="636.93" r="608.61"/>
      <path d="M1026.03,142.25c166.65,118.62,265.07,320.24,257.87,524.53-12.81,423.45-437.67,711.41-835.99,565.79C-46.05,1046.49-107.66,383.77,344.51,111.14,555.13-14.18,828.03-2.58,1026.03,142.25h0Zm-1.76,2.43C715.81-78.98,274.95,37.86,117.5,384.77-2.95,643.15,81.64,963.29,314.46,1127.97c229.63,169.09,560.07,148.66,767.41-47.04,279.69-258.66,251.82-713.89-57.59-936.25h0Z"/>
    </g>
    <path class="cls-11" d="M349.6,1091.18C155.4,951.25,72.29,697.95,131.98,475.02c58.31-217.79,231.6-326.96,272.83-351.47-19.68-.28-39.37-.57-59.05-.85-46.61,29.71-165.37,114.13-233.6,274.86-18.68,43.99-61.73,160.05-43.66,305.84,27.32,220.38,186.28,443.9,427.45,517.97,186.82,57.38,346.33,1.12,389.24-15.57,188.76-73.44,278.35-219.58,304.4-263.51,42.59-71.83,62.83-138.87,73.13-184.82-12.64,2.85-25.27,5.71-37.91,8.56-4.25,16.58-87.19,318.08-385.91,408.12-18.78,5.66-268.26,76.3-489.3-82.97Z"/>
    <path class="cls-9" d="M944.76,141.4c29.14,16.29,227.4,131.57,281.9,371.67,24.5,107.9,10.6,199.81-1.86,252.97,12.64-2.85,25.27-5.71,37.91-8.56,10.79-52.85,22.52-145.33-2.3-255.28-11.2-49.6-48.14-183.84-168.86-300.76C930.77,45.7,737.39,33.08,695.73,31.3c-172.44-7.38-298.97,61.54-347.46,91.44,18.85,.27,37.69,.54,56.54,.82,28.3-12.83,285.75-124.25,539.95,17.85Z"/>
  </g>
  <circle class="cls-4" cx="342.61" cy="649.94" r="155.06"/>
  <circle class="cls-3" cx="672.17" cy="952.57" r="155.06"/>
  <circle class="cls-1" cx="1001.35" cy="649.94" r="155.06"/>
  <circle class="cls-2" cx="672.17" cy="347.59" r="155.06"/>
  <path class="cls-6" d="M575.01,421.05c-1.93-2.38-35.25-44.81-24.23-99.19,3.14-15.48,8.97-27.49,13.57-35.35-.87-13.47-1.74-26.93-2.62-40.4-8.87,9.77-21.26,25.86-29.68,48.47-23.29,62.54,4.99,118.03,7.94,123.59,5.83,11,27.08,47.73,72.57,67.28,3.06,1.31,66.51,27.4,126.91-4.68,12.19-6.47,21.18-13.69,26.94-18.86-14.56-1.57-29.12-3.14-43.68-4.71-10.9,3.91-28.3,8.68-49.78,8.18-11.75-.28-63.16-1.49-97.93-44.32Z"/>
  <path class="cls-5" d="M903.96,722.67c-1.93-2.38-35.25-44.81-24.23-99.19,3.14-15.48,8.97-27.49,13.57-35.35-.87-13.47-1.74-26.93-2.62-40.4-8.87,9.77-21.26,25.86-29.68,48.47-23.29,62.54,4.99,118.03,7.94,123.59,5.83,11,27.08,47.73,72.57,67.28,3.06,1.31,66.51,27.4,126.91-4.68,12.19-6.47,21.18-13.69,26.94-18.86-14.56-1.57-29.12-3.14-43.68-4.71-10.9,3.91-28.3,8.68-49.78,8.18-11.75-.28-63.16-1.49-97.93-44.32Z"/>
  <path class="cls-8" d="M575.01,1027.71c-1.93-2.38-35.25-44.81-24.23-99.19,3.14-15.48,8.97-27.49,13.57-35.35-.87-13.47-1.74-26.93-2.62-40.4-8.87,9.77-21.26,25.86-29.68,48.47-23.29,62.54,4.99,118.03,7.94,123.59,5.83,11,27.08,47.73,72.57,67.28,3.06,1.31,66.51,27.4,126.91-4.68,12.19-6.47,21.18-13.69,26.94-18.86-14.56-1.57-29.12-3.14-43.68-4.71-10.9,3.91-28.3,8.68-49.78,8.18-11.75-.28-63.16-1.49-97.93-44.32Z"/>
  <path class="cls-10" d="M245.38,723.67c-1.93-2.38-35.25-44.81-24.23-99.19,3.14-15.48,8.97-27.49,13.57-35.35-.87-13.47-1.74-26.93-2.62-40.4-8.87,9.77-21.26,25.86-29.68,48.47-23.29,62.54,4.99,118.03,7.94,123.59,5.83,11,27.08,47.73,72.57,67.28,3.06,1.31,66.51,27.4,126.91-4.68,12.19-6.47,21.18-13.69,26.94-18.86-14.56-1.57-29.12-3.14-43.68-4.71-10.9,3.91-28.3,8.68-49.78,8.18-11.75-.28-63.16-1.49-97.93-44.32Z"/>
</svg>